<svg width="98" height="24" viewBox="0 0 98 24" fill="none" xmlns="http://www.w3.org/2000/svg">
<path d="M16.9914 20.344C16.9914 20.8133 17.034 21.1547 17.1194 21.368C17.2047 21.5813 17.3754 21.7307 17.6314 21.816C17.8874 21.9013 18.2927 21.944 18.8474 21.944V23H10.3674V21.944C10.8367 21.944 11.178 21.912 11.3914 21.848C11.6047 21.7627 11.7434 21.624 11.8074 21.432C11.8714 21.24 11.9034 20.9307 11.9034 20.504V12.824C11.9034 11.608 11.722 10.744 11.3594 10.232C11.018 9.72 10.506 9.464 9.82338 9.464C9.35404 9.464 8.92738 9.58133 8.54338 9.816C8.18071 10.0293 7.72204 10.4133 7.16738 10.968V20.344C7.16738 21.0267 7.27404 21.464 7.48738 21.656C7.70071 21.848 8.17004 21.944 8.89538 21.944V23H0.0313751V21.944C0.650042 21.944 1.09804 21.912 1.37538 21.848C1.65271 21.7627 1.83404 21.6133 1.91938 21.4C2.02604 21.1867 2.07938 20.8347 2.07938 20.344V3.864C2.07938 3.43733 2.01538 3.16 1.88738 3.032C1.78071 2.88267 1.53538 2.808 1.15138 2.808H0.0313751V1.752L5.47138 0.919998H7.16738V9.72H7.19938C8.50071 8.29067 10.154 7.576 12.1594 7.576C15.3807 7.576 16.9914 9.32533 16.9914 12.824V20.344ZM36.4586 20.952C36.4586 21.272 36.5013 21.496 36.5866 21.624C36.672 21.752 36.832 21.8373 37.0666 21.88C37.3013 21.9227 37.7173 21.944 38.3146 21.944V23H31.5306V21.048H31.4986C30.9013 21.7307 30.1973 22.296 29.3866 22.744C28.5973 23.1707 27.5946 23.384 26.3786 23.384C23.1573 23.384 21.5466 21.6347 21.5466 18.136V10.744C21.5466 10.3173 21.4826 10.04 21.3546 9.912C21.248 9.76267 21.0026 9.688 20.6186 9.688H19.4986V8.632L24.8746 7.8H26.6346V18.136C26.6346 19.352 26.8053 20.216 27.1466 20.728C27.5093 21.24 28.032 21.496 28.7146 21.496C29.184 21.496 29.6 21.3893 29.9626 21.176C30.3466 20.9413 30.816 20.5467 31.3706 19.992V10.744C31.3706 10.3173 31.3066 10.04 31.1786 9.912C31.072 9.76267 30.8266 9.688 30.4426 9.688H29.3226V8.632L34.6986 7.8H36.4586V20.952ZM65.7201 20.344C65.7201 20.8133 65.7628 21.1547 65.8481 21.368C65.9335 21.5813 66.1041 21.7307 66.3601 21.816C66.6161 21.9013 67.0215 21.944 67.5761 21.944V23H59.0321V21.944C59.7148 21.944 60.1521 21.8587 60.3441 21.688C60.5361 21.496 60.6321 21.1013 60.6321 20.504V12.824C60.6321 11.6293 60.4401 10.776 60.0561 10.264C59.6721 9.73067 59.1281 9.464 58.4241 9.464C57.7415 9.464 57.1868 9.69867 56.7601 10.168C56.3335 10.616 56.0455 11.2347 55.8961 12.024V20.344C55.8961 20.8133 55.9281 21.1547 55.9921 21.368C56.0775 21.5813 56.2268 21.7307 56.4401 21.816C56.6748 21.9013 57.0481 21.944 57.5601 21.944V23H49.2721V21.944C49.7415 21.944 50.0828 21.912 50.2961 21.848C50.5095 21.7627 50.6481 21.624 50.7121 21.432C50.7761 21.24 50.8081 20.9307 50.8081 20.504V12.824C50.8081 11.608 50.6268 10.744 50.2641 10.232C49.9228 9.72 49.4108 9.464 48.7281 9.464C48.2588 9.464 47.8321 9.58133 47.4481 9.816C47.0855 10.0293 46.6268 10.4133 46.0721 10.968V20.344C46.0721 21.0267 46.1788 21.464 46.3921 21.656C46.6055 21.848 47.0748 21.944 47.8001 21.944V23H38.9361V21.944C39.5548 21.944 40.0028 21.912 40.2801 21.848C40.5575 21.7627 40.7388 21.6133 40.8241 21.4C40.9308 21.1867 40.9841 20.8347 40.9841 20.344V10.744C40.9841 10.3173 40.9201 10.04 40.7921 9.912C40.6855 9.76267 40.4401 9.688 40.0561 9.688H38.9361V8.632L44.2161 7.8H45.9121V9.912H45.9441C46.5628 9.208 47.2668 8.64267 48.0561 8.216C48.8668 7.78933 49.8695 7.576 51.0641 7.576C52.2161 7.576 53.1655 7.78933 53.9121 8.216C54.6801 8.64267 55.2241 9.24 55.5441 10.008C56.0348 9.176 56.6748 8.568 57.4641 8.184C58.2748 7.77867 59.2881 7.576 60.5041 7.576C62.1895 7.576 63.4801 7.992 64.3761 8.824C65.2721 9.63467 65.7201 10.968 65.7201 12.824V20.344ZM79.3221 7.672C80.1755 7.672 80.8688 7.928 81.4021 8.44C81.9568 8.93067 82.2341 9.61333 82.2341 10.488C82.2341 11.2133 82.0315 11.832 81.6261 12.344C81.2421 12.856 80.6341 13.112 79.8021 13.112C79.1195 13.112 78.5648 12.9307 78.1381 12.568C77.7115 12.2053 77.4981 11.704 77.4981 11.064C77.4981 10.68 77.5621 10.392 77.6901 10.2C77.8395 9.98667 77.9141 9.85867 77.9141 9.816C77.9141 9.688 77.8075 9.624 77.5941 9.624C77.2528 9.624 76.9008 9.90133 76.5381 10.456C76.1968 10.9893 75.9088 11.64 75.6741 12.408C75.4395 13.1547 75.3221 13.8267 75.3221 14.424V20.344C75.3221 20.8133 75.3755 21.1547 75.4821 21.368C75.6101 21.5813 75.8235 21.7307 76.1221 21.816C76.4421 21.9013 76.9435 21.944 77.6261 21.944V23H68.1861V21.944C68.8048 21.944 69.2528 21.912 69.5301 21.848C69.8075 21.7627 69.9888 21.6133 70.0741 21.4C70.1808 21.1867 70.2341 20.8347 70.2341 20.344V10.744C70.2341 10.3173 70.1701 10.04 70.0421 9.912C69.9355 9.76267 69.6901 9.688 69.3061 9.688H68.1861V8.632L73.4661 7.8H75.1621V10.84H75.1941C76.1968 8.728 77.5728 7.672 79.3221 7.672ZM97.7299 15.544H88.1939C88.2579 17.6987 88.5565 19.2133 89.0899 20.088C89.6445 20.9627 90.5192 21.4 91.7139 21.4C93.7192 21.4 95.1805 20.3973 96.0979 18.392L97.2499 18.936C96.8659 19.7893 96.4285 20.536 95.9379 21.176C95.4472 21.7947 94.7325 22.3173 93.7939 22.744C92.8765 23.1707 91.7032 23.384 90.2739 23.384C87.8419 23.384 85.9965 22.7227 84.7379 21.4C83.4792 20.0773 82.8499 18.1147 82.8499 15.512C82.8499 12.888 83.4899 10.9147 84.7699 9.592C86.0712 8.248 87.9592 7.576 90.4339 7.576C95.2979 7.576 97.7299 10.168 97.7299 15.352V15.544ZM92.3859 14.488C92.3859 12.3333 92.2365 10.8187 91.9379 9.944C91.6392 9.06933 91.0952 8.632 90.3059 8.632C89.6019 8.632 89.0685 9.048 88.7059 9.88C88.3645 10.712 88.1939 12.248 88.1939 14.488H92.3859Z" fill="#5B5B5B"/>
</svg>
